<?xml version="1.0" standalone="no"?>
<!DOCTYPE svg PUBLIC "-//W3C//DTD SVG 20010904//EN"
 "http://www.w3.org/TR/2001/REC-SVG-20010904/DTD/svg10.dtd">
<svg version="1.0" xmlns="http://www.w3.org/2000/svg"
 width="25.000000pt" height="25.000000pt" viewBox="0 0 50.000000 50.000000"
 preserveAspectRatio="xMidYMid meet">

<g transform="translate(0.000000,50.000000) scale(0.100000,-0.100000)"
fill="#fb0202" stroke="none">
<path d="M137 363 c-4 -4 16 -31 45 -60 l52 -53 -52 -53 c-29 -29 -49 -56 -45
-60 4 -4 31 16 60 45 l53 52 53 -52 c29 -29 56 -49 60 -45 4 4 -16 31 -45 60
l-52 53 52 53 c29 29 49 56 45 60 -4 4 -31 -16 -60 -45 l-53 -52 -53 52 c-29
29 -56 49 -60 45z"/>
</g>
</svg>
